 http://www.shotpix.com/images/84567105060553526008.jpg


 
http://www.imdb.com/title/tt0790724/


[b]Plot:A homicide investigator digs deeper into a case involving a trained military sniper who shot five random victims.

Director: 
Christopher McQuarrie

 Writers: 
Christopher McQuarrie (screenplay), Lee Child (book)
 
Stars:
 Tom Cruise, Rosamund Pike and Richard Jenkins

Genres:
 Action | Crime | Thriller 
 

Thanks: ADTRG[/b]




Format                                   : AVI
Format/Info                              : Audio Video Interleave
File size                                : 713 MiB
Duration                                 : 2h 4mn
Overall bit rate                         : 798 Kbps
Writing library                          : VirtualDub build 32842/release

Video
ID                                       : 0
Format                                   : MPEG-4 Visual
Format profile                           : Simple@L3
Format settings, BVOP                    : No
Format settings, QPel                    : No
Format settings, GMC                     : No warppoints
Format settings, Matrix                  : Default (H.263)
Codec ID                                 : XVID
Codec ID/Hint                            : XviD
Duration                                 : 2h 4mn
Bit rate                                 : 659 Kbps
Width                                    : 720 pixels
Height                                   : 342 pixels
Display aspect ratio                     : 2.105
Frame rate                               : 29.970 fps
Color space                              : YUV
Chroma subsampling                       : 4:2:0
Bit depth                                : 8 bits
Scan type                                : Progressive
Compression mode                         : Lossy
Bits/(Pixel*Frame)                       : 0.089
Stream size                              : 588 MiB (83%)
Writing library                          : XviD 1.3.0.dev55

Audio
ID                                       : 1
Format                                   : MPEG Audio
Format version                           : Version 1
Format profile                           : Layer 3
Mode                                     : Joint stereo
Mode extension                           : MS Stereo
Codec ID                                 : 55
Codec ID/Hint                            : MP3
Duration                                 : 2h 4mn
Bit rate mode                            : Constant
Bit rate                                 : 128 Kbps
Channel(s)                               : 2 channels
Sampling rate                            : 48.0 KHz
Compression mode                         : Lossy
Stream size                              : 114 MiB (16%)
Alignment                                : Split accross interleaves
Interleave, duration                     : 33 ms (1.00 video frame)
Interleave, preload duration             : 500 ms
Writing library                          : LAME3.99r
Encoding settings                        : -m j -V 4 -q 3 -lowpass 17 -b 128







 
http://www.shotpix.com/images/91587381060177511294.png
 
http://www.shotpix.com/images/38550943393321356548.png
 
http://www.shotpix.com/images/63135017341096538744.png
 
http://www.shotpix.com/images/29557226000187900947.png

